<?xml version="1.0" standalone="no"?>
<!DOCTYPE svg PUBLIC "-//W3C//DTD SVG 20010904//EN"
 "http://www.w3.org/TR/2001/REC-SVG-20010904/DTD/svg10.dtd">
<svg version="1.0" xmlns="http://www.w3.org/2000/svg"
 width="439.000000pt" height="439.000000pt" viewBox="0 0 439.000000 439.000000"
 preserveAspectRatio="xMidYMid meet">

<g transform="translate(0.000000,439.000000) scale(0.100000,-0.100000)"
fill="#000000" stroke="none">
<path d="M4105 3030 c-46 -10 -79 -35 -104 -81 -26 -45 -21 4 -91 -863 -33
-405 -43 -457 -99 -544 -18 -28 -109 -118 -221 -217 -171 -152 -220 -190 -220
-170 0 3 62 76 138 162 274 311 282 322 282 397 -1 46 -32 107 -74 144 -46 40
-102 44 -157 9 -64 -40 -633 -504 -686 -558 -114 -120 -198 -290 -232 -475 -6
-28 -19 -208 -30 -400 -12 -192 -23 -368 -25 -392 l-4 -42 497 0 496 0 0 147
c0 146 0 149 32 213 32 66 45 82 202 245 492 515 476 497 521 585 42 84 53
134 52 255 -1 200 -91 1436 -107 1481 -28 74 -100 119 -170 104z"/>
</g>
</svg>
